<svg width="27" height="27" viewBox="0 0 27 27" fill="none" xmlns="http://www.w3.org/2000/svg">
<circle cx="13.5" cy="13.5" r="13" stroke="white"/>
<path fill-rule="evenodd" clip-rule="evenodd" d="M11.7325 8.533C12.319 8.506 12.506 8.5 14 8.5C15.494 8.5 15.681 8.5065 16.267 8.533C16.853 8.5595 17.253 8.653 17.603 8.7885C17.9695 8.927 18.302 9.1435 18.577 9.4235C18.857 9.698 19.073 10.03 19.211 10.397C19.347 10.747 19.44 11.147 19.467 11.732C19.494 12.3195 19.5 12.5065 19.5 14C19.5 15.494 19.4935 15.681 19.467 16.2675C19.4405 16.8525 19.347 17.2525 19.211 17.6025C19.073 17.9695 18.8566 18.3021 18.577 18.577C18.302 18.857 17.9695 19.073 17.603 19.211C17.253 19.347 16.853 19.44 16.268 19.467C15.681 19.494 15.494 19.5 14 19.5C12.506 19.5 12.319 19.4935 11.7325 19.467C11.1475 19.4405 10.7475 19.347 10.3975 19.211C10.0305 19.073 9.69791 18.8566 9.423 18.577C9.14319 18.3023 8.92666 17.9699 8.7885 17.603C8.653 17.253 8.56 16.853 8.533 16.268C8.506 15.6805 8.5 15.4935 8.5 14C8.5 12.506 8.5065 12.319 8.533 11.733C8.5595 11.147 8.653 10.747 8.7885 10.397C8.92686 10.03 9.14356 9.69766 9.4235 9.423C9.69802 9.14325 10.0302 8.92672 10.397 8.7885C10.747 8.653 11.147 8.56 11.732 8.533H11.7325ZM16.2225 9.523C15.6425 9.4965 15.4685 9.491 14 9.491C12.5315 9.491 12.3575 9.4965 11.7775 9.523C11.241 9.5475 10.95 9.637 10.756 9.7125C10.4995 9.8125 10.316 9.931 10.1235 10.1235C9.94102 10.301 9.80059 10.5171 9.7125 10.756C9.637 10.95 9.5475 11.241 9.523 11.7775C9.4965 12.3575 9.491 12.5315 9.491 14C9.491 15.4685 9.4965 15.6425 9.523 16.2225C9.5475 16.759 9.637 17.05 9.7125 17.244C9.8005 17.4825 9.941 17.699 10.1235 17.8765C10.301 18.059 10.5175 18.1995 10.756 18.2875C10.95 18.363 11.241 18.4525 11.7775 18.477C12.3575 18.5035 12.531 18.509 14 18.509C15.469 18.509 15.6425 18.5035 16.2225 18.477C16.759 18.4525 17.05 18.363 17.244 18.2875C17.5005 18.1875 17.684 18.069 17.8765 17.8765C18.059 17.699 18.1995 17.4825 18.2875 17.244C18.363 17.05 18.4525 16.759 18.477 16.2225C18.5035 15.6425 18.509 15.4685 18.509 14C18.509 12.5315 18.5035 12.3575 18.477 11.7775C18.4525 11.241 18.363 10.95 18.2875 10.756C18.1875 10.4995 18.069 10.316 17.8765 10.1235C17.699 9.94104 17.4829 9.80061 17.244 9.7125C17.05 9.637 16.759 9.5475 16.2225 9.523ZM13.2975 15.6955C13.6898 15.8588 14.1267 15.8809 14.5335 15.7579C14.9402 15.6349 15.2917 15.3745 15.5278 15.0211C15.7639 14.6678 15.87 14.2434 15.828 13.8206C15.786 13.3977 15.5985 13.0025 15.2975 12.7025C15.1056 12.5107 14.8736 12.3639 14.6182 12.2726C14.3627 12.1812 14.0902 12.1477 13.8202 12.1743C13.5503 12.2009 13.2896 12.2871 13.0569 12.4266C12.8242 12.566 12.6254 12.7554 12.4747 12.9809C12.3239 13.2065 12.2251 13.4626 12.1853 13.731C12.1454 13.9993 12.1656 14.2731 12.2443 14.5328C12.323 14.7924 12.4582 15.0313 12.6404 15.2324C12.8225 15.4334 13.0469 15.5916 13.2975 15.6955ZM12.001 12.001C12.2635 11.7385 12.5752 11.5303 12.9181 11.3882C13.2611 11.2461 13.6288 11.173 14 11.173C14.3712 11.173 14.7389 11.2461 15.0819 11.3882C15.4248 11.5303 15.7365 11.7385 15.999 12.001C16.2615 12.2635 16.4697 12.5752 16.6118 12.9181C16.7539 13.2611 16.827 13.6288 16.827 14C16.827 14.3712 16.7539 14.7389 16.6118 15.0819C16.4697 15.4248 16.2615 15.7365 15.999 15.999C15.4688 16.5292 14.7498 16.827 14 16.827C13.2502 16.827 12.5312 16.5292 12.001 15.999C11.4708 15.4688 11.173 14.7498 11.173 14C11.173 13.2502 11.4708 12.5312 12.001 12.001ZM17.454 11.594C17.5191 11.5326 17.5711 11.4588 17.6072 11.377C17.6432 11.2951 17.6624 11.2069 17.6637 11.1175C17.665 11.028 17.6484 10.9393 17.6147 10.8564C17.5811 10.7735 17.5312 10.6983 17.468 10.635C17.4047 10.5718 17.3295 10.5219 17.2466 10.4883C17.1637 10.4546 17.075 10.438 16.9855 10.4393C16.8961 10.4406 16.8079 10.4598 16.726 10.4958C16.6442 10.5319 16.5704 10.5839 16.509 10.649C16.3897 10.7755 16.3243 10.9436 16.3268 11.1175C16.3294 11.2914 16.3996 11.4574 16.5226 11.5804C16.6456 11.7034 16.8116 11.7736 16.9855 11.7761C17.1594 11.7787 17.3275 11.7133 17.454 11.594Z" fill="white"/>
</svg>
