<svg width="27" height="27" viewBox="0 0 27 27" fill="none" xmlns="http://www.w3.org/2000/svg">
<circle cx="13.5" cy="13.5" r="13" stroke="white"/>
<path d="M19.8215 10.4684C19.404 10.6534 18.9555 10.7784 18.484 10.8349C18.9705 10.5438 19.3345 10.0856 19.508 9.54592C19.0509 9.81741 18.5507 10.0085 18.029 10.1109C17.6782 9.73635 17.2135 9.48808 16.7072 9.40465C16.2008 9.32123 15.6811 9.40731 15.2286 9.64954C14.7762 9.89177 14.4164 10.2766 14.2051 10.7443C13.9938 11.2119 13.9428 11.7363 14.06 12.2359C13.1338 12.1894 12.2278 11.9487 11.4007 11.5294C10.5736 11.11 9.84393 10.5215 9.25901 9.80192C9.05901 10.1469 8.94401 10.5469 8.94401 10.9729C8.94378 11.3564 9.03822 11.734 9.21895 12.0723C9.39967 12.4105 9.66109 12.6989 9.98001 12.9119C9.61014 12.9001 9.24844 12.8002 8.92501 12.6204V12.6504C8.92497 13.1883 9.11102 13.7096 9.4516 14.1259C9.79217 14.5422 10.2663 14.8279 10.7935 14.9344C10.4504 15.0273 10.0907 15.041 9.74151 14.9744C9.89025 15.4372 10.18 15.8419 10.5702 16.1319C10.9604 16.4218 11.4315 16.5825 11.9175 16.5914C11.0924 17.2391 10.0734 17.5905 9.02451 17.5889C8.8387 17.589 8.65304 17.5781 8.46851 17.5564C9.53324 18.241 10.7727 18.6043 12.0385 18.6029C16.3235 18.6029 18.666 15.0539 18.666 11.9759C18.666 11.8759 18.6635 11.7749 18.659 11.6749C19.1147 11.3454 19.508 10.9374 19.8205 10.4699L19.8215 10.4684Z" fill="white"/>
</svg>
