<svg width="176" height="52" viewBox="0 0 176 52" fill="none" xmlns="http://www.w3.org/2000/svg">
<path fill-rule="evenodd" clip-rule="evenodd" d="M0 14.9952V15.1257L29.6337 29.0596L59.3735 15.079V15.044L29.6337 1.06128L0 14.9952ZM10.684 15.061L29.6337 6.14985L48.5877 15.061L29.6337 23.971L10.683 15.061H10.684ZM29.6337 34.4718L0 20.747V25.8239L29.6337 39.5816L59.3735 25.7761V20.6992L29.6337 34.4718ZM29.6337 44.7689L0 31.0409V36.1167L29.6337 49.8776L59.3735 36.0711V30.9942L29.6337 44.7689Z" fill="white"/>
<mask id="mask0" mask-type="alpha" maskUnits="userSpaceOnUse" x="76" y="0" width="100" height="52">
<path d="M76.3523 0.0318604H175.973V51.2784H76.3534L76.3523 0.0318604Z" fill="white"/>
</mask>
<g mask="url(#mask0)">
<path fill-rule="evenodd" clip-rule="evenodd" d="M169.173 25.6297C169.191 23.438 168.371 21.3224 166.882 19.7155C166.181 18.964 165.338 18.3603 164.401 17.9401C163.451 17.5136 162.42 17.2961 161.379 17.3023C160.308 17.3023 159.3 17.5145 158.355 17.9401C157.418 18.3603 156.575 18.9639 155.874 19.7155C154.386 21.323 153.566 23.4389 153.584 25.6308C153.567 27.8223 154.386 29.9377 155.874 31.545C156.575 32.2962 157.418 32.8995 158.355 33.3193C159.306 33.7464 160.337 33.9642 161.378 33.9582C162.449 33.9582 163.456 33.7459 164.402 33.3193C165.339 32.8993 166.182 32.296 166.882 31.545C168.371 29.9376 169.19 27.8216 169.172 25.6297H169.173ZM175.975 25.6297C175.975 27.68 175.596 29.5806 174.84 31.3317C174.114 33.0387 173.054 34.5831 171.723 35.8737C170.401 37.1525 168.85 38.1617 167.071 38.9024C165.292 39.6442 163.394 40.0146 161.378 40.0146C159.364 40.0146 157.473 39.6442 155.71 38.9024C153.988 38.1881 152.417 37.1524 151.081 35.8504C149.753 34.5482 148.693 32.9969 147.964 31.285C147.208 29.5339 146.83 27.6492 146.83 25.6297C146.83 23.642 147.215 21.7732 147.987 20.0222C148.734 18.307 149.8 16.7495 151.128 15.4324C152.459 14.118 154.031 13.0736 155.758 12.357C157.538 11.6124 159.449 11.2341 161.378 11.2448C163.394 11.2448 165.29 11.6162 167.071 12.357C168.85 13.0977 170.4 14.108 171.723 15.3857C173.046 16.6634 174.085 18.1852 174.84 19.9511C175.596 21.718 175.975 23.6113 175.975 25.6297ZM144.467 39.1635C143.885 39.4321 143.275 39.6384 142.649 39.779C141.973 39.9361 141.271 40.0146 140.548 40.0146C139.565 40.0181 138.587 39.8827 137.643 39.6124C136.746 39.362 135.916 38.9179 135.209 38.3113C134.517 37.7117 133.966 36.9317 133.555 35.9692C133.147 35.0067 132.942 33.8468 132.942 32.4916V0.0297852H139.886V31.3083C139.886 32.4438 140.114 33.2249 140.571 33.6504C141.027 34.076 141.571 34.2893 142.201 34.2893C142.987 34.2893 143.743 34.0526 144.467 33.5793V39.1635ZM129.872 11.9059L117.59 44.4155C116.677 46.8446 115.48 48.5957 114 49.6686C112.52 50.7404 110.756 51.2763 108.71 51.2763C108.395 51.2763 108.049 51.253 107.671 51.2063C107.304 51.161 106.941 51.0898 106.584 50.993L104.317 44.6522C104.848 44.9027 105.402 45.1007 105.971 45.2433C106.537 45.3855 107.073 45.4566 107.576 45.4566C108.647 45.4566 109.622 45.2125 110.505 44.7233C111.387 44.2351 112.063 43.3277 112.536 42.0023L113.481 39.2579L102.947 11.907H110.364L116.646 29.5106L122.551 11.907H129.872V11.9059ZM101.294 7.79052H83.5331V16.5923H101.058V22.5543H83.5321V39.3046H76.3542V1.49746H101.295V7.79052H101.294Z" fill="white"/>
</g>
</svg>
